<svg width="21" height="21" viewBox="0 0 21 21" fill="none" xmlns="http://www.w3.org/2000/svg">
<path fill-rule="evenodd" clip-rule="evenodd" d="M15.6675 20.7244C13.6474 20.2183 9.51186 18.7915 5.76275 15.0423C2.01363 11.2932 0.586791 7.15771 0.0806628 5.13763C-0.210202 3.97671 0.313565 2.85647 1.20168 2.2221L3.52993 0.559061C4.89221 -0.413994 6.78731 -0.0838051 7.74022 1.29263L9.20602 3.40989C9.82822 4.30863 9.6136 5.54043 8.72411 6.17578L7.55533 7.01062C7.73222 7.68723 8.28238 9.07669 10.0054 10.7997C11.7284 12.5227 13.1179 13.0729 13.7945 13.2498L14.6293 12.081C15.2647 11.1915 16.4965 10.9769 17.3952 11.5991L19.5125 13.0649C20.8889 14.0178 21.2191 15.9129 20.246 17.2752L18.583 19.6034C17.9486 20.4915 16.8284 21.0153 15.6675 20.7244ZM7.17696 13.6281C10.5863 17.0375 14.3488 18.3322 16.1535 18.7844C16.4173 18.8505 16.7362 18.748 16.9555 18.4409L18.6186 16.1127C18.9429 15.6586 18.8328 15.0269 18.374 14.7092L16.2568 13.2435L15.3609 14.4977C14.9948 15.0103 14.3177 15.4123 13.5293 15.2422C12.5453 15.0299 10.7263 14.349 8.59117 12.2139C6.45609 10.0788 5.77518 8.25983 5.56286 7.27582C5.39276 6.48743 5.7948 5.81033 6.30737 5.44421L7.56163 4.54831L6.09584 2.43105C5.7782 1.97224 5.1465 1.86218 4.69241 2.18653L2.36416 3.84956C2.05712 4.06888 1.95461 4.38778 2.0207 4.65155C2.47287 6.45631 3.76758 10.2187 7.17696 13.6281Z" fill="#151618"/>
</svg>
