<svg width="65" height="64" viewBox="0 0 65 64" fill="none" xmlns="http://www.w3.org/2000/svg">
<path d="M28.8466 2.84899C29.8367 2.34687 30.9507 2.08337 32.0833 2.08337C33.2158 2.08337 34.3298 2.34687 35.3199 2.84899L60.3699 15.5541C60.8893 15.8178 61.322 16.2036 61.6232 16.6713C61.9244 17.139 62.0833 17.6718 62.0833 18.2145V43.2808C62.083 44.3664 61.7648 45.4321 61.1617 46.3676C60.5586 47.3032 59.6926 48.0744 58.6533 48.6015L35.3199 60.4421C34.3298 60.9443 33.2158 61.2077 32.0833 61.2077C30.9507 61.2077 29.8367 60.9443 28.8466 60.4421L5.51325 48.6015C4.47444 48.0747 3.60869 47.3039 3.00563 46.369C2.40258 45.434 2.08413 44.3689 2.08325 43.2838V18.2145C2.08323 17.6718 2.24206 17.139 2.5433 16.6713C2.84454 16.2036 3.27724 15.8178 3.79659 15.5541L28.8466 2.84899Z" stroke="#754E29" stroke-width="4.16667" stroke-linecap="round" stroke-linejoin="round"/>
<path d="M2.08325 16.4255L32.0833 31.6449M32.0833 31.6449L62.0833 16.4255M32.0833 31.6449V62.0836" stroke="#754E29" stroke-width="4.16667" stroke-linejoin="round"/>
<path d="M17.0833 24.0348L47.0833 8.81543M12.0833 32.6429L22.0833 37.7322" stroke="#754E29" stroke-width="4.16667" stroke-linecap="round" stroke-linejoin="round"/>
</svg>
